# xmcd
#
# Track frame offsets:
#	183
#	12108
#	27943
#	39563
#	54568
#	67008
#	80623
#	95288
#	109498
#	121453
#	133030
#	143818
#	153963
#	168665
#	181935
#	195055
#
# Disc length: 2741
#
# Revision: 2
# Processed by: cddbd v1.5.1PL0 Copyright (c) Steve Scherf et al.
# Submitted via: audiograbber 1.80.04
# Normalized: r1:DSETVAR1
#
DISCID=d40ab310
DTITLE=Various Artist - 16 succès éternels Volume 1
DYEAR=1900
DGENRE=Pop
TTITLE0=Gilles Dreu - Alouette
TTITLE1=Michel Delpech - Chez Laurette
TTITLE2=Marie Laforêt - Les vendanges de l'amour
TTITLE3=Gérard Lenorman - Laisse entrer le soleil
TTITLE4=Michel Fugain - Je n'aurai pas le temps
TTITLE5=Nicole Croisille - Vivre pour vivre
TTITLE6=Serge Lama - C'était ma femme
TTITLE7=France Gall - Les années folles
TTITLE8=Pierre Barouh - Un homme et une femme
TTITLE9=Jean Ferrat - Deux enfants au soleil
TTITLE10=Sacha Distel - Cheveux dans le vent
TTITLE11=Leny Escudero - Pour une amourette
TTITLE12=Brigitte Bardot - Mister sun
TTITLE13=Les Surfs - Reviens sloopy
TTITLE14=Nancy Holloway - T'en vas pas comme ca
TTITLE15=Jean Sablon - Pigalle
EXTD=
EXTT0=
EXTT1=
EXTT2=
EXTT3=
EXTT4=
EXTT5=
EXTT6=
EXTT7=
EXTT8=
EXTT9=
EXTT10=
EXTT11=
EXTT12=
EXTT13=
EXTT14=
EXTT15=
PLAYORDER=
